<svg xmlns="http://www.w3.org/2000/svg" viewBox="0 0 64 64">
  <rect width="64" height="64" rx="14" fill="#f8fbff"/>
  <path
    fill="#062a59"
    d="M13 27.5 17.8 16A7.8 7.8 0 0 1 25 11h14a7.8 7.8 0 0 1 7.2 5L51 27.5a7 7 0 0 1 5 6.7V45a5 5 0 0 1-5 5h-2v3a4 4 0 0 1-8 0v-3H23v3a4 4 0 0 1-8 0v-3h-2a5 5 0 0 1-5-5V34.2a7 7 0 0 1 5-6.7Z"
  />
  <path fill="#fff" d="m21.5 19-3.2 9h27.4l-3.2-9a3.8 3.8 0 0 0-3.5-2.5H25a3.8 3.8 0 0 0-3.5 2.5Z"/>
  <circle cx="17" cy="38" r="4" fill="#e86f08"/>
  <circle cx="47" cy="38" r="4" fill="#e86f08"/>
  <rect x="24" y="40" width="16" height="4" rx="2" fill="#fff"/>
</svg>
